:SAMPLES-PER-SECOND 30
:FULLY-SPECIFIED
:DEGREES
470
root  -40.3613 33.9167 -2.37487 -148.762 29.105 -177.937
RightUpLeg  -48.6458 -9.03029 3.77944
RightLeg  16.9709 7.13647 1.68071
RightFoot  9.96244 -0.0778438 1.38703
RightToes  -45.2268 -0.261526 -0.342704
Spine  11.2463 0.594672 0.470431
Spine1  22.3873 1.2638 1.20779
HEad  4.49237 -4.84876 -5.6934
LeftShoulder1  -1.94126e-019 -3.10601e-018 -2.51263e-017
LeftArm  41.0896 -0.617377 -63.5822
LeftForeArm  41.382 -58.045 -14.2916
LeftHand  -1.45169 -0.756647 27.1975
RightShoulder  -4.96962e-017 0 -2.36833e-017
RightArm  34.6328 3.74148 64.4875
RightForeArm  67.2321 48.994 8.097
RightHand  -1.08483 -2.58696 -43.3387
LeftUpLeg  -52.5932 8.71111 0.842769
LeftLeg  27.8805 -3.26974 -1.47246
LeftFoot  6.38239 0.0267122 -0.235079
LeftToes  -37.9858 1.83942e-006 5.51297e-008
471
root  -40.2823 33.8557 -2.3533 -147.74 29.4287 -177.698
RightUpLeg  -50.0078 -9.04507 4.48114
RightLeg  17.6743 8.04344 1.99691
RightFoot  10.5836 -0.106345 1.63705
RightToes  -44.2869 -0.253602 -0.338035
Spine  11.4636 0.581849 0.456989
Spine1  22.8124 1.25716 1.13734
HEad  5.16771 -4.99526 -5.38992
LeftShoulder1  -1.94126e-019 -3.10601e-018 -2.51263e-017
LeftArm  42.8211 -1.76653 -62.7384
LeftForeArm  41.548 -58.3217 -14.4524
LeftHand  -1.38129 0.0036423 29.4264
RightShoulder  -4.96962e-017 0 -2.36833e-017
RightArm  34.8649 4.47567 64.8258
RightForeArm  67.0489 48.6292 7.9724
RightHand  -1.04933 -2.75298 -44.4891
LeftUpLeg  -53.941 8.69627 1.12936
LeftLeg  28.8887 -2.89074 -1.36424
LeftFoot  6.36151 0.0236178 -0.190375
LeftToes  -34.3514 1.83942e-006 5.51297e-008
472
root  -40.1827 33.8098 -2.34337 -146.477 29.984 -177.236
RightUpLeg  -51.3405 -8.7092 5.31998
RightLeg  18.1759 8.90992 2.29283
RightFoot  10.9506 -0.131743 1.85845
RightToes  -42.0512 -0.235073 -0.326414
Spine  11.5911 0.603939 0.419155
Spine1  23.0614 1.31308 1.05127
HEad  6.08186 -4.8311 -5.29353
LeftShoulder1  -1.94126e-019 -3.10601e-018 -2.51263e-017
LeftArm  44.0953 -2.48818 -61.6784
LeftForeArm  41.2837 -59.2955 -15.1311
LeftHand  -1.27635 0.57138 30.3518
RightShoulder  -4.96962e-017 0 -2.36833e-017
RightArm  35.4509 5.20262 65.1405
RightForeArm  67.2632 48.2272 7.8217
RightHand  -1.00203 -2.93637 -45.6
LeftUpLeg  -55.3545 8.85818 1.59619
LeftLeg  29.9144 -2.31879 -1.14671
LeftFoot  6.28775 0.0190347 -0.1202
LeftToes  -30.7345 1.83942e-006 5.51297e-008
473
root  -40.0461 33.7798 -2.36566 -145.489 30.4851 -176.518
RightUpLeg  -51.9784 -8.25318 6.21344
RightLeg  18.4081 9.53573 2.49338
RightFoot  11.0121 -0.145458 1.98945
RightToes  -40.2743 -0.220678 -0.316667
Spine  11.8534 0.664653 0.492409
Spine1  23.5853 1.41441 1.20326
HEad  6.44027 -4.75067 -5.6494
LeftShoulder1  -1.94126e-019 -3.10601e-018 -2.51263e-017
LeftArm  44.5701 -2.94525 -61.1404
LeftForeArm  41.3854 -60.0901 -15.6851
LeftHand  -1.13053 1.26782 31.3853
RightShoulder  -4.96962e-017 0 -2.36833e-017
RightArm  35.9531 5.8458 64.9065
RightForeArm  67.466 48.3085 7.83886
RightHand  -0.961263 -3.06478 -46.1466
LeftUpLeg  -56.2454 8.96373 2.49753
LeftLeg  30.9916 -1.4596 -0.758288
LeftFoot  5.85498 0.0118862 -0.00746613
LeftToes  -29.0179 1.83942e-006 5.51297e-008
474
root  -39.9051 33.7598 -2.42582 -144.893 31.4231 -176.072
RightUpLeg  -52.3939 -7.92763 6.85479
RightLeg  18.7506 10.5102 2.81206
RightFoot  10.9165 -0.161297 2.16288
RightToes  -39.5208 -0.214667 -0.312399
Spine  12.1416 0.745295 0.409124
Spine1  24.1497 1.57325 1.07781
HEad  6.17657 -4.40207 -6.36246
LeftShoulder1  -1.94126e-019 -3.10601e-018 -2.51263e-017
LeftArm  44.527 -3.26144 -60.805
LeftForeArm  41.6792 -60.4578 -15.9209
LeftHand  -1.07578 1.59643 32.4131
RightShoulder  -4.96962e-017 0 -2.36833e-017
RightArm  36.3585 6.19869 64.712
RightForeArm  67.1474 48.2798 7.84322
RightHand  -0.882667 -3.31286 -47.4047
LeftUpLeg  -56.5135 8.98106 3.22895
LeftLeg  31.7452 -0.248894 -0.137575
LeftFoot  5.40963 0.00339148 0.129229
LeftToes  -27.8466 1.83942e-006 5.51297e-008
